{"title":"Aaj Ka Naya Kamina (2013) Hindi DVD Web Rip GOPI SAHI PDR","uid":8971594,"size":476361975,"categoryP":"video","categoryS":"hd___movies","magnet":"?xt=urn:btih:110a300ed636ba9fbd0bd03652327b79d347ba2c&amp;dn=Aaj+Ka+Naya+Kamina+%282013%29+Hindi+DVD+Web+Rip+GOPI+SAHI+PDR&amp;tr=udp%3A%2F%2Ftracker.openbittorrent.com%3A80&amp;tr=udp%3A%2F%2Fopen.demonii.com%3A1337&amp;tr=udp%3A%2F%2Ftracker.coppersurfer.tk%3A6969&amp;tr=udp%3A%2F%2Fexodus.desync.com%3A6969","seeders":0,"leechers":1,"uploader":"jatt13","files":10,"time":1380341501,"description":"Aaj Ka Naya Kamina (2013) Hindi DVD Web Rip GOPI SAHI PDR\n[img]http://imageshack.us/a/img802/2678/k9wp.png[/img]\n\n[img]http://imageshack.us/a/img716/4018/3cts.jpg[/img]\n\nVideo\nID                             : 0\nFormat                         : AVC\nFormat/Info                    : Advanced Video Codec\nFormat profile                 : &lt;a class=&quot;__cf_email__&quot; href=&quot;/cdn-cgi/l/email-protection&quot; data-cfemail=&quot;236e424a4d636f160d12&quot;&gt;[email&amp;#160;protected]&lt;/a&gt;&lt;script cf-hash='f9e31' type=&quot;text/javascript&quot;&gt;\n/* &lt;![CDATA[ */!function(){try{var t=&quot;currentScript&quot;in document?document.currentScript:function(){for(var t=document.getElementsByTagName(&quot;script&quot;),e=t.length;e--;)if(t[e].getAttribute(&quot;cf-hash&quot;))return t[e]}();if(t&amp;&amp;t.previousSibling){var e,r,n,i,c=t.previousSibling,a=c.getAttribute(&quot;data-cfemail&quot;);if(a){for(e=&quot;&quot;,r=parseInt(a.substr(0,2),16),n=2;a.length-n;n+=2)i=parseInt(a.substr(n,2),16)^r,e+=String.fromCharCode(i);e=document.createTextNode(e),c.parentNode.replaceChild(e,c)}}}catch(u){}}();/* ]]&gt; */&lt;/script&gt;\nFormat settings, CABAC         : Yes\nFormat settings, ReFrames      : 1 frame\nCodec ID                       : H264\nDuration                       : 1h 50mn\nBit rate                       : 499 Kbps\nWidth                          : 640 pixels\nHeight                         : 360 pixels\nDisplay aspect ratio           : 16:9\nFrame rate                     : 25.000 fps\nColor space                    : YUV\nChroma subsampling             : 4:2:0\nBit depth                      : 8 bits\nScan type                      : Progressive\nBits/(Pixel*Frame)             : 0.087\nStream size                    : 395 MiB (87%)\n\nAudio\nID                             : 1\nFormat                         : MPEG Audio\nFormat version                 : Version 1\nFormat profile                 : Layer 2\nCodec ID                       : 50\nDuration                       : 1h 50mn\nBit rate mode                  : Constant\nBit rate                       : 64.0 Kbps\nChannel count                  : 2 channels\nSampling rate                  : 44.1 KHz\nCompression mode               : Lossy\nStream size                    : 50.4 MiB (11%)\nAlignment                      : Aligned on interleaves\nInterleave, duration           : 41 ms (1.01 video frame)\nInterleave, preload duration   : 52 ms\n\n[img]http://imageshack.us/a/img209/8461/i43d.jpg[/img]\n[img]http://imageshack.us/a/img819/7734/lcvn.png[/img]\n[img]http://imageshack.us/a/img542/8418/3rao.png[/img]\n[img]http://imageshack.us/a/img62/8369/p18v.png[/img]\n[img]http://imageshack.us/a/img163/6625/at2x.png[/img]\n[img]http://imageshack.us/a/img837/457/yvqb.png[/img]\n[img]http://imageshack.us/a/img196/3439/37k4.png[/img]","torrent":{"xt":"urn:btih:110a300ed636ba9fbd0bd03652327b79d347ba2c","amp;dn":"Aaj+Ka+Naya+Kamina+%282013%29+Hindi+DVD+Web+Rip+GOPI+SAHI+PDR","amp;tr":["udp%3A%2F%2Ftracker.openbittorrent.com%3A80","udp%3A%2F%2Fopen.demonii.com%3A1337","udp%3A%2F%2Ftracker.coppersurfer.tk%3A6969","udp%3A%2F%2Fexodus.desync.com%3A6969"],"infoHash":"110a300ed636ba9fbd0bd03652327b79d347ba2c","infoHashBuffer":{"type":"Buffer","data":[17,10,48,14,214,54,186,159,189,11,208,54,82,50,123,121,211,71,186,44]},"announce":[],"urlList":[]}}